<svg xmlns="http://www.w3.org/2000/svg" xmlns:xlink="http://www.w3.org/1999/xlink" version="1.1" id="Capa_1" x="0px" y="0px" width="100.0px" height="100px" viewBox="0 0 141.73 141.73" enable-background="new 0 0 141.73 141.73" xml:space="preserve">
<g>
	<path d="M96.305,138.131l-1.287-1.314l-0.928-1.59h-0.671h-0.934h-1.339l-0.98-0.769l4.903-8.111l-0.466-0.331l-0.104-0.547   l-0.518-0.438l-0.979-0.329l-0.722-0.603h-0.725h-0.514l-0.619-0.492l-0.258-0.438l-1.137-0.659l-0.514-0.329H87.43h-0.774v1.042   h-0.774l-1.082-0.11l-0.619,0.22v-0.493l-0.828-0.658v0.329v0.493l-0.358-0.547v-0.275l-1.703-0.329v-0.546l-0.567,0.381   l-0.773,0.77l-0.364,0.767l-0.464,0.054l-0.774,0.111c0,0-0.362,0.327-0.567,0.327c-0.207,0-1.703,0.22-1.703,0.22l-0.358-0.054   l-1.089-0.22l-0.67-0.109v-0.164l-0.617,0.164l-0.311,0.438l-0.621-0.163l-1.237,0.438l-0.36-0.714l-0.877-0.22   c0,0-0.828-0.163-0.774-0.549c0.05-0.383-0.47-0.877-0.004-1.15c0.468-0.273,0.675-0.658,0.675-0.658l-0.87-1.697l-0.832-0.551   h-1.706l-0.463-0.381v-0.438v-0.824v-0.603l-0.567-0.768l-0.311-0.932l-0.724-0.438h-0.563h-0.313h-0.36v-0.385l-0.516-0.656   h-0.776l-0.412-0.495v-0.219h-0.824l-1.086-0.273v-0.766v-0.713l-0.565-0.385l-0.261-0.768v-0.712l-1.134-0.769l-1.031-0.821   l-0.826-0.329v-0.766l-0.671-0.551h-0.569v0.385l-0.927-0.385l-1.139-0.876l-0.565-0.329l-1.136,0.603l-0.981-0.603l-1.031-0.329   l-0.569-0.438h-1.292l-1.186-0.768l-0.875-0.712l-0.672-0.822l-0.619-0.329l-1.236-0.273l-0.929,0.273v0.766l-0.879,0.495h-0.774   l-0.877-0.438l-1.755,0.274l-1.753-0.492l-1.033-0.22c0,0-1.807-0.658-1.858-0.658s-0.257-1.043-0.257-1.043v-0.658   c0,0-0.981-0.327-1.031-0.492c-0.052-0.164,0-0.658,0-0.658l-0.518-0.493l-1.238,0.329l-1.292-0.329l-1.805-0.821l-0.466-0.603   l-1.343-0.658l-0.878-0.768l-1.184-0.438l-1.548-1.481l-0.981-1.041l-0.567-0.493l0.619-1.206l1.031-0.439h1.395h0.67L22.92,88.58   l-0.567-0.823l-0.364-1.039l0.364-1.316l0.722-1.207l1.031-1.314l1.857-0.438h1.395h2.115l0.621-1.263l1.186-1.973l1.083-2.026   l0.877-0.604c0,0,0.828-0.821,0.932-0.985c0.104-0.165,0.667-1.263,0.667-1.263s0.517-1.097,0.621-1.258   c0.104-0.166,0.052-0.604-0.205-0.439c-0.259,0.164-0.93,0.383-0.93,0.383l-1.031-0.42l0.36-0.348l-0.36-0.528l-0.722-0.732   c0,0-0.416-0.822-0.416-0.987c0-0.164,0.518-0.878,0.518-0.878l0.877-2.409v-1.263l-0.466-1.041l-0.155-1.699v-1.863l-0.461-0.878   h-1.087l0.313-0.493l0.617-0.385h1.035l0.462-0.658c0,0,0.313-0.381,0.313-0.712c0-0.327-0.158-0.712-0.158-0.712l-0.412-0.985   l-0.205-0.77l-0.983-0.875l-0.104-0.768h0.414l0.36-0.546l0.313-1.263l-0.052-0.658l-0.209-0.439l-0.205-0.493h-0.517h-0.72   l-0.261-0.658c0,0-0.774-0.985-0.927-0.931c-0.153,0.056,0-0.712,0-0.712l-0.153-0.439l-0.468-0.546l-0.928-0.824l-0.36-0.327   l0.513-1.209c0,0,0.155-0.381,0.414-0.546s0.673,0,0.673,0s-0.052-0.931-0.052-1.097c0-0.164,0.207-0.439,0.207-0.439l0.927,0.548   l0.621,0.549l0.462-0.439l0.672-1.205l0.824-0.878l0.621-0.712l0.309-1.097l-1.339-1.809v-0.822l-0.67-0.878l0.41-1.041   l0.723,0.604l0.929,0.931l1.395,1.095c0,0,0.518,0.877,0.67,0.934c0.153,0.054,0.671,0.931,0.671,0.931l-0.824,0.712l0.203,0.546   h0.828l0.824-0.164l-0.05-2.192l-0.311-1.59l-0.774-1.151l-0.464-0.219l0.311-0.439l1.805-0.439l1.805-1.041l1.031-1.095   l1.602-2.028l1.24-1.426l1.906-0.439h1.346l0.153-0.493l0.153-1.48l-0.617-0.385l0.412-0.822c0,0,0.205-0.437,0.465-0.768   c0.257-0.327,0.617-0.712,0.412-1.039c-0.205-0.331-0.412-0.331-0.36-0.604c0.052-0.273,0.257-1.041,0.36-1.26   c0.102-0.219-0.052-1.207-0.052-1.207s0.104-0.878,0.207-1.042c0.102-0.164,1.188-0.987,1.188-0.987l0.824-0.875h1.084l0.567-0.987   l1.395-0.931l0.565-0.493l1.292,0.383l1.73,0.329h1.109l1.083-0.273l-0.308-0.987l0.259-0.877l0.72-0.329l1.238-0.273h1.755   l1.705,0.493l1.339-0.109l1.65-0.822l1.395-0.878l0.981-0.712l1.393-1.097l2.222-0.439l1.856-0.822l0.671-0.932l0.259-1.48V5.319   h1.188c0,0,0.257,0.439,0.41,0.439c0.155,0,0.981-0.056,0.981-0.056L79.175,4.99l0.671-0.548l0.564,0.329l0.259-0.822h0.878   l1.498,0.273l1.031,0.438l1.082,0.878l0.673,1.314l-1.134,0.934l-1.139,0.875L82.116,9.21l-1.81,0.712l-2.062,0.931l-1.548,3.564   l-1.861,0.546l-1.548,2.414l-0.826,1.753l-1.03,1.865l-0.774,1.753l-0.104,1.37l-0.35,1.973l-1.097,0.712l-0.358,0.878   l-0.774,1.043l-0.774,1.371l0.774,0.327l1.083-0.493l0.927-0.602l0.22,0.712l0.555,0.877l0.673-0.219l0.465,0.056l0.41,2.026   l0.518,1.865l1.085,1.039l0.98,0.824l0.257,1.755l0.207,1.478l-0.725,0.385l-0.202,1.097l0.102,1.039l0.101,1.92l0.93,0.546   l1.087-0.219l0.36,1.043l0.773,1.258l0.928,0.551h1.6l1.24,0.054l1.858-0.054l1.238,0.163l0.98-0.109l1.445,0.383l0.621-0.219   l1.134-0.549l2.271,0.112l0.774,0.656l0.776,0.056l0.614,0.054l1.035-0.166l0.309-0.108l5.937,7.236l0.463-0.22l0.671,0.22   l0.309,0.054l1.035-0.493l0.461-0.495l1.756,0.275l1.548,0.219l1.139-0.056l0.927-0.164l1.185-0.112l1.034-0.327   c0,0,0.516-0.056,0.673-0.056c0.155,0,0.719,0.109,0.719,0.109l1.138-0.273l1.083-0.549l1.548,0.329l0.723,0.439l0.36,0.932   l0.414,0.931l-1.342,0.712l-0.463,1.207l0.308,1.041l-0.357,1.151l-1.551,0.931l-0.155,1.646l0.311,1.26l-0.155,1.097l-0.102,1.151   l-0.569,1.37l0.774,0.932l0.569,0.985l-0.211,1.263l0.416,0.658l0.461,1.534l0.262,1.151L116.483,74l0.673-0.219l0.261,0.658   l0.563,1.424l0.468,0.438l0.566,0.658l-0.722,0.493l-1.033,0.492l-1.603,1.81l-1.854,1.316l0.307,0.327l1.396-0.22l0.979,0.551   l0.723,0.875l0.468,0.329l0.619,0.493l0.722,0.768l0.617,0.768v1.205l0.261,0.495l0.671,0.383v0.438v0.821l0.828,1.534l0.306,1.153   l0.468,1.589l0.358,0.876V94.5l-1.805,0.273l0.155-1.919l-1.135-3.016l-0.673-0.273l-1.086-3.067l-0.514,0.107l-1.085,1.151   l-2.322,0.987v1.041l-0.828,0.109l-1.235-1.426l-0.826-0.218l-0.518,0.218v0.989l0.671,0.547l-0.257,0.219l-4.438,0.11   l-2.221,0.056l-2.991-0.166l-1.548-0.546l-1.499,0.437l-1.08,0.22l-0.056,2.138l-0.102,2.851h0.518l0.357-0.057h0.723l0.774,0.166   l1.602-0.054l1.035,0.383l0.514,1.314l0.153,1.263l-0.514,0.985l-1.188-0.439l-1.134-0.766L98.73,99.05l-1.44,0.438l-1.604,0.164   l-0.309,0.438l0.104,5.098l0.205,0.383l0.83,1.042l0.667,0.329l1.138,0.768l0.878,0.327l0.153,0.877l-0.309,0.932l0.516,0.771   l0.619,0.985l0.618,0.821v1.48l0.104,1.043l-0.67,2.521l-1.499,8.388l-1.184,6.192L96.305,138.131z"/>
</g>
</svg>