<svg xmlns="http://www.w3.org/2000/svg" xmlns:xlink="http://www.w3.org/1999/xlink" version="1.1" x="0px" y="0px" width="100px" height="100px" viewBox="0 0 100 100" enable-background="new 0 0 100 100" xml:space="preserve">
<g id="Captions">
</g>
<g id="Your_Icon">
	<path fill="#000000" d="M95.996,66.716c-1.975-1.974-4.4-3.216-6.949-3.73v-18.06v-0.024c0.012-0.539-0.16-1.051-0.527-1.421   l-0.018-0.02l0.014-0.015l-4.889-2.803l-20.189-11.59v-0.003l-0.062-0.061c-0.236-0.233-0.525-0.388-0.844-0.466   c1.879-4.888,0.854-10.635-3.092-14.576c-5.338-5.341-13.994-5.341-19.334,0c-3.986,3.988-4.994,9.823-3.027,14.748   c-0.152,0.08-0.297,0.181-0.422,0.306l-0.055,0.057l0,0l-20.209,11.6l-4.873,2.795l-0.012-0.015l-0.025,0.027   c-0.295,0.294-0.459,0.681-0.512,1.098c-0.023,0.19-0.023,0.392,0,0.598V62.98c-2.555,0.515-4.986,1.757-6.967,3.735   c-5.34,5.339-5.338,13.996,0,19.337c5.342,5.34,13.998,5.34,19.336,0c5.338-5.341,5.338-13.998,0-19.337   c-1.975-1.974-4.402-3.216-6.947-3.73V46.697l23.592-13.543c0.041,0.042,0.08,0.086,0.121,0.13c1.98,1.979,4.412,3.222,6.969,3.736   l-0.006,25.962c-2.551,0.513-4.982,1.755-6.963,3.733c-5.338,5.339-5.338,13.996,0,19.337c5.342,5.34,13.996,5.34,19.334,0   c5.342-5.341,5.342-13.998,0-19.337c-1.971-1.974-4.402-3.216-6.945-3.73V37.013c2.547-0.515,4.975-1.754,6.945-3.729   c0.105-0.105,0.203-0.213,0.307-0.318l23.881,13.706V62.98c-2.555,0.515-4.988,1.757-6.965,3.735c-5.34,5.339-5.34,13.996,0,19.337   c5.338,5.34,13.996,5.34,19.334,0C101.336,80.712,101.336,72.055,95.996,66.716z"/>
</g>
</svg>