<svg xmlns="http://www.w3.org/2000/svg" xmlns:xlink="http://www.w3.org/1999/xlink" version="1.1" id="Layer_1" x="0px" y="0px" width="100px" height="100px" viewBox="0 0 100 100" enable-background="new 0 0 100 100" xml:space="preserve">
<g id="Captions" display="none">
	<rect x="-192" display="inline" width="185" height="99"/>
	<rect y="-36" display="inline" width="100" height="30"/>
	<text transform="matrix(1 0 0 1 66 -19.5)" display="inline" fill="#000000" font-family="'Helvetica'" font-size="2.4">http://thenounproject.com</text>
	
		<text transform="matrix(1 0 0 1 7.166 -24.5)" display="inline" fill="#000000" font-family="'Helvetica-Bold'" font-size="6.1578">The Noun Project</text>
	<text transform="matrix(1 0 0 1 8.2861 -19.7002)" display="inline" fill="#000000" font-family="'Helvetica-Bold'" font-size="4">Icon Template</text>
	
		<text transform="matrix(1 0 0 1 -178.5 10.5)" display="inline" fill="#000000" font-family="'Helvetica-Bold'" font-size="6.1578">Reminders</text>
	<line display="inline" fill="#000000" stroke="#FFFFFF" stroke-miterlimit="10" x1="8" y1="-14.5" x2="18" y2="-14.5"/>
	<line display="inline" fill="#000000" stroke="#FFFFFF" stroke-miterlimit="10" x1="-179" y1="16.5" x2="-162" y2="16.5"/>
	<g display="inline">
		<g>
			<g>
				<rect x="-170.802" y="31.318" fill="#000000" width="8.721" height="8.642"/>
				<path fill="#000000" d="M-164.455,42.312h4.747v-4.703h-4.747V42.312z M-159.266,42.749h-5.63V37.17h5.63V42.749      L-159.266,42.749z M-166.221,44.062h8.279v-8.203h-8.279V44.062L-166.221,44.062z M-157.5,44.5h-9.163v-9.079h9.163V44.5      L-157.5,44.5z"/>
				<polygon fill="#000000" points="-166.149,44.133 -166.292,43.991 -158.013,35.787 -157.871,35.929     "/>
			</g>
		</g>
	</g>
	<rect x="-179" y="58" display="inline" fill="none" width="35" height="32.5"/>
	<text transform="matrix(1 0 0 1 -179 60.1572)" display="inline" fill="#000000" font-family="'Helvetica-Bold'" font-size="3">Strokes</text>
	<text transform="matrix(1 0 0 1 -179 65.1572)" display="inline" fill="#000000" font-family="'Helvetica'" font-size="2.4">Try to keep strokes at 4px</text>
	<text transform="matrix(1 0 0 1 -179 70.1572)" display="inline" fill="#000000" font-family="'Helvetica'" font-size="2.4">Minimum stroke weight is 2px</text>
	<text transform="matrix(1 0 0 1 -179 74.6572)" display="inline" fill="#000000" font-family="'Helvetica'" font-size="2.4">For thicker strokes use even </text>
	<text transform="matrix(1 0 0 1 -179 77.6572)" display="inline" fill="#000000" font-family="'Helvetica'" font-size="2.4">numbers: 6px, 8px etc.</text>
	<text transform="matrix(1 0 0 1 -179 82.1572)" display="inline" fill="#000000" font-family="'Helvetica-Bold'" font-size="2.4">Remember to expand strokes </text>
	<text transform="matrix(1 0 0 1 -179 85.1572)" display="inline" fill="#000000" font-family="'Helvetica-Bold'" font-size="2.4">before saving as an SVG </text>
	<rect x="-136.5" y="58" display="inline" fill="none" width="35" height="32.5"/>
	<text transform="matrix(1 0 0 1 -136.5 60.1572)" display="inline" fill="#000000" font-family="'Helvetica-Bold'" font-size="3">Size</text>
	<text transform="matrix(1 0 0 1 -136.5 65.1572)" display="inline" fill="#000000" font-family="'Helvetica'" font-size="2.4">Cannot be wider or taller than </text>
	<text transform="matrix(1 0 0 1 -136.5 68.6572)" display="inline" fill="#000000" font-family="'Helvetica'" font-size="2.4">100px (artboard size)</text>
	<text transform="matrix(1 0 0 1 -136.5 73.6572)" display="inline" fill="#000000" font-family="'Helvetica'" font-size="2.4">Scale your icon to fill as much of </text>
	<text transform="matrix(1 0 0 1 -136.5 76.6572)" display="inline" fill="#000000" font-family="'Helvetica'" font-size="2.4">the artboard as possible</text>
	<rect x="-94" y="58" display="inline" fill="none" width="35" height="32.5"/>
	<text transform="matrix(1 0 0 1 -94 60.1572)" display="inline" fill="#000000" font-family="'Helvetica-Bold'" font-size="3">Ungroup</text>
	<text transform="matrix(1 0 0 1 -94 65.1572)" display="inline" fill="#000000" font-family="'Helvetica'" font-size="2.4">If your design has more than one </text>
	<text transform="matrix(1 0 0 1 -94 68.1572)" display="inline" fill="#000000" font-family="'Helvetica'" font-size="2.4">shape, make sure to ungroup</text>
	<rect x="-50" y="58" display="inline" fill="none" width="35" height="32.5"/>
	<text transform="matrix(1 0 0 1 -50 60.1572)" display="inline" fill="#000000" font-family="'Helvetica-Bold'" font-size="3">Save as</text>
	<text transform="matrix(1 0 0 1 -50 65.1572)" display="inline" fill="#000000" font-family="'Helvetica'" font-size="2.4">Save as .SVG and make sure </text>
	<text transform="matrix(1 0 0 1 -50 68.1572)" display="inline" fill="#000000" font-family="'Helvetica'" font-size="2.4">&#8220;Use Artboards&#8221; is checked</text>
	
		<text transform="matrix(1.0074 0 0 1 -125.542 30.5938)" display="inline" fill="#000000" font-family="'Helvetica'" font-size="2.5731">100px</text>
	
		<text transform="matrix(1.0074 0 0 1 -41 39)" display="inline" fill="#000000" font-family="'Helvetica-Bold'" font-size="5.1462">.SVG</text>
	<rect x="-126.514" y="34.815" display="inline" fill="#000000" width="10.261" height="10.185"/>
	<rect x="-126.477" y="31.766" display="inline" fill="#000000" width="0.522" height="2.337"/>
	<rect x="-116.812" y="31.766" display="inline" fill="#000000" width="0.523" height="2.337"/>
	<rect x="-127" y="32.337" display="inline" fill="#000000" width="11.233" height="0.572"/>
	<g display="inline">
		<rect x="-83.805" y="33.844" fill="#000000" width="10.305" height="10.156"/>
		<rect x="-76.809" y="28.707" fill="#000000" width="3.308" height="3.261"/>
	</g>
	<rect x="-178.5" y="22.5" display="inline" fill="#000000" stroke="#FFFFFF" stroke-miterlimit="10" width="30" height="30"/>
	<rect x="-136.5" y="22.5" display="inline" fill="#000000" stroke="#FFFFFF" stroke-miterlimit="10" width="30" height="30"/>
	<rect x="-93.5" y="22.5" display="inline" fill="#000000" stroke="#FFFFFF" stroke-miterlimit="10" width="30" height="30"/>
	<rect x="-49.5" y="22.5" display="inline" fill="#000000" stroke="#FFFFFF" stroke-miterlimit="10" width="30" height="30"/>
</g>
<g id="Your_Icon">
	<g>
		<path d="M46,67c-9.533,0-17-5.052-17-11.5C29,49.051,36.467,44,46,44c9.532,0,17,5.051,17,11.5C63,61.948,55.532,67,46,67z M46,50    c-6.296,0-11,2.902-11,5.5S39.704,61,46,61s11-2.902,11-5.5S52.296,50,46,50z"/>
	</g>
	<g>
		<path d="M76.5,41C69.49,41,64,37.486,64,33s5.49-8,12.5-8S89,28.514,89,33S83.51,41,76.5,41z M76.5,29c-4.865,0-8.5,2.112-8.5,4    s3.635,4,8.5,4s8.5-2.112,8.5-4S81.365,29,76.5,29z"/>
	</g>
	<g>
		<path d="M82.5,84C74.232,84,68,80.561,68,76s6.232-8,14.5-8S97,71.439,97,76S90.768,84,82.5,84z M82.5,72    C76.188,72,72,74.407,72,76s4.188,4,10.5,4S93,77.593,93,76S88.812,72,82.5,72z"/>
	</g>
	<g>
		<path d="M27.5,88C18.093,88,11,84.131,11,79s7.093-9,16.5-9S44,73.869,44,79S36.907,88,27.5,88z M27.5,74    C19.87,74,15,76.961,15,79s4.87,5,12.5,5S40,81.039,40,79S35.13,74,27.5,74z"/>
	</g>
	<g>
		<path d="M26,40c-8.551,0-15-3.654-15-8.5S17.449,23,26,23s15,3.654,15,8.5S34.551,40,26,40z M26,27c-6.715,0-11,2.665-11,4.5    S19.285,36,26,36s11-2.665,11-4.5S32.715,27,26,27z"/>
	</g>
	<g>
		<path d="M15,22c-6.271,0-11-2.364-11-5.5S8.729,11,15,11s11,2.364,11,5.5S21.271,22,15,22z M15,13c-5.151,0-9,1.848-9,3.5    S9.849,20,15,20s9-1.848,9-3.5S20.151,13,15,13z"/>
	</g>
	<g>
		<path d="M11.5,55C6.173,55,2,52.364,2,49s4.173-6,9.5-6s9.5,2.636,9.5,6S16.827,55,11.5,55z M11.5,45C7.435,45,4,46.832,4,49    s3.435,4,7.5,4s7.5-1.832,7.5-4S15.565,45,11.5,45z"/>
	</g>
	<g>
		
			<rect x="63.502" y="34.154" transform="matrix(-0.6785 -0.7346 0.7346 -0.6785 76.6776 119.5597)" width="2.001" height="17.693"/>
	</g>
	<g>
		<rect x="58.652" y="63.001" transform="matrix(-0.7348 -0.6783 0.6783 -0.7348 73.6823 156.8123)" width="17.692" height="2"/>
	</g>
	<g>
		<rect x="36.001" y="61.477" transform="matrix(-0.7476 -0.6641 0.6641 -0.7476 19.8364 142.5332)" width="2" height="12.042"/>
	</g>
	<g>
		<rect x="28.391" y="41.5" transform="matrix(-0.6332 -0.774 0.774 -0.6332 25.0784 96.8857)" width="14.213" height="2"/>
	</g>
	<g>
		<rect x="15.501" y="36.199" transform="matrix(-0.8138 -0.5811 0.5811 -0.8138 6.3934 83.0484)" width="2" height="8.602"/>
	</g>
	<g>
		<rect x="17.196" y="21.501" transform="matrix(-0.5546 -0.8321 0.8321 -0.5546 10.8137 50.7898)" width="3.606" height="2"/>
	</g>
	<g>
		<rect x="10" y="15" width="10" height="2"/>
	</g>
	<g>
		<rect x="24.999" y="24.483" transform="matrix(-0.0713 -0.9975 0.9975 -0.0713 -3.5693 59.6801)" width="2" height="14.037"/>
	</g>
	<g>
		
			<rect x="38.984" y="52.499" transform="matrix(-0.9978 -0.0665 0.0665 -0.9978 89.2744 111.9705)" width="15.034" height="3.999"/>
	</g>
	<g>
		<rect x="76.001" y="28.473" transform="matrix(-0.0996 -0.995 0.995 -0.0996 51.341 113.4529)" width="2" height="10.05"/>
	</g>
	<g>
		<rect x="76" y="75" width="6" height="2"/>
	</g>
	<g>
		<rect x="85" y="75" width="6" height="2"/>
	</g>
	<g>
		<rect x="20" y="78" width="10" height="2"/>
	</g>
	<g>
		<rect x="33.999" y="75.463" transform="matrix(-0.1646 -0.9864 0.9864 -0.1646 -36.6769 125.9449)" width="2" height="6.083"/>
	</g>
	<g>
		<rect x="7" y="48" width="8" height="2"/>
	</g>
</g>
</svg>