<svg xmlns="http://www.w3.org/2000/svg" xmlns:xlink="http://www.w3.org/1999/xlink" version="1.1" x="0px" y="0px" width="100px" height="100px" viewBox="0 0 100 100" enable-background="new 0 0 100 100" xml:space="preserve">
<g id="Captions">
</g>
<g id="Your_Icon">
	<path d="M50.06,22.26c-26.437,0-47.942,21.506-47.942,47.941h40.991c-0.158,3.841,2.548,7.237,6.312,7.736   C49.73,77.979,50.046,78,50.357,78c1.483,0,2.924-0.463,4.16-1.339c1.721-1.227,2.865-3.141,3.147-5.256   c0.054-0.396,0.075-0.799,0.064-1.204H98C98,43.766,76.493,22.26,50.06,22.26z M30.744,42.919c-1.382,1.032-2.697,2.19-3.934,3.468   l-5.271-3.984c3.543-3.812,7.719-6.838,12.419-8.985c4.592-2.1,9.483-3.278,14.538-3.503c5.06-0.225,10.03,0.517,14.773,2.203   c4.865,1.73,9.273,4.384,13.108,7.885l-0.026,0.028c0.978,0.892,1.909,1.837,2.795,2.83l-5.23,3.986   c-11.06-11.994-29.682-13.918-43.17-3.924L30.744,42.919z M38.672,53.611c-0.379,0.285-0.751,0.584-1.113,0.901l-5.315-4.02   c4.567-4.438,10.518-7.02,16.915-7.304c4.548-0.203,8.993,0.849,12.949,2.918c0.059,0.031,0.119,0.061,0.178,0.091   c0.152,0.082,0.304,0.168,0.456,0.252c1.334,0.738,2.603,1.592,3.788,2.561c0.106,0.086,0.208,0.177,0.314,0.265   c0.174,0.146,0.349,0.292,0.52,0.443c0.055,0.048,0.112,0.093,0.164,0.141l-0.007,0.007c0.368,0.334,0.727,0.68,1.077,1.036   l-5.272,4.02c-6.661-6.197-17.031-6.947-24.648-1.305L38.672,53.611z M42.541,58.278c4.881-3.432,11.33-3.113,15.812,0.432   l-5.622,4.286c-1.328-0.504-2.814-0.56-4.236-0.218L42.541,58.278z M81.423,46.135l-2.818,2.532l-4.937,4.444l-4.18,3.758   L55.495,69.462c0.107,0.576,0.135,1.181,0.049,1.797c-0.213,1.602-1.071,2.941-2.263,3.791c-0.846,0.599-1.856,0.945-2.924,0.945   c-0.217,0-0.436-0.014-0.655-0.043c-2.83-0.375-4.81-3.083-4.416-6.053c0.015-0.107,0.038-0.21,0.059-0.315   c0.488-2.575,2.662-4.425,5.133-4.425c0.215,0,0.434,0.015,0.651,0.043c0.604,0.082,1.168,0.273,1.678,0.547l1.947-1.484   c0-0.001-0.003-0.002-0.005-0.002l5.256-3.995l4.883-3.713l5.225-3.972l5.277-4.011l5.221-3.969   c0.002,0.001,0.003,0.003,0.005,0.005c0.027-0.012,0.054-0.026,0.08-0.037c0.015-0.007,0.029-0.009,0.041-0.012   c0.109-0.039,0.214-0.052,0.316-0.052c0.005,0,0.007,0,0.01,0c0.021,0,0.038,0,0.056,0.003c0.082,0.001,0.157,0.027,0.229,0.053   c0.034,0.014,0.076,0.019,0.104,0.029c0.096,0.052,0.188,0.117,0.253,0.21C81.996,45.182,81.868,45.779,81.423,46.135z"/>
</g>
</svg>